<svg xmlns="http://www.w3.org/2000/svg" width="240" height="300" font-family="ui-monospace, Menlo, Consolas, monospace" font-size="16" xml:space="preserve" shape-rendering="crispEdges">
<rect width="100%" height="100%" fill="#1e1e1e"/>
<text x="0" y="15" fill="#ff8267" font-weight="bold">E</text>
<text x="10" y="15" fill="#ff925d" font-weight="bold">N</text>
<text x="20" y="15" fill="#ffa152" font-weight="bold">V</text>
<text x="30" y="15" fill="#febc29" font-weight="bold">I</text>
<text x="40" y="15" fill="#fdd700" font-weight="bold">O</text>
<text x="0" y="55" fill="#cccccc">C</text>
<text x="10" y="55" fill="#cccccc">h</text>
<text x="20" y="55" fill="#cccccc">a</text>
<text x="30" y="55" fill="#cccccc">i</text>
<text x="40" y="55" fill="#cccccc">n</text>
<text x="50" y="55" fill="#cccccc">:</text>
<text x="70" y="55" fill="#cccccc" font-weight="bold">1</text>
<text x="90" y="55" fill="#ffbb2f">⚡</text>
<rect x="110" y="40" width="10" height="20" fill="#ffbb2f"/>
<text x="110" y="55" fill="#666666">2</text>
<rect x="120" y="40" width="10" height="20" fill="#ffbb2f"/>
<text x="120" y="55" fill="#666666">5</text>
<rect x="130" y="40" width="10" height="20" fill="#ffbb2f"/>
<text x="130" y="55" fill="#666666">%</text>
<rect x="140" y="40" width="10" height="20" fill="#ffbb2f"/>
<rect x="150" y="40" width="10" height="20" fill="#666666"/>
<rect x="160" y="40" width="10" height="20" fill="#e5e5e5"/>
<rect x="170" y="40" width="10" height="20" fill="#e5e5e5"/>
<rect x="180" y="40" width="10" height="20" fill="#e5e5e5"/>
<rect x="190" y="40" width="10" height="20" fill="#e5e5e5"/>
<rect x="200" y="40" width="10" height="20" fill="#e5e5e5"/>
<rect x="210" y="40" width="10" height="20" fill="#e5e5e5"/>
<text x="0" y="75" fill="#666666">B</text>
<text x="10" y="75" fill="#666666">l</text>
<text x="20" y="75" fill="#666666">o</text>
<text x="30" y="75" fill="#666666">c</text>
<text x="40" y="75" fill="#666666">k</text>
<text x="50" y="75" fill="#666666">s</text>
<text x="60" y="75" fill="#666666">:</text>
<text x="80" y="75" fill="#666666">1</text>
<text x="90" y="75" fill="#666666">,</text>
<text x="100" y="75" fill="#666666">2</text>
<text x="110" y="75" fill="#666666">5</text>
<text x="120" y="75" fill="#666666">0</text>
<text x="130" y="75" fill="#666666">,</text>
<text x="140" y="75" fill="#666666">0</text>
<text x="150" y="75" fill="#666666">0</text>
<text x="160" y="75" fill="#666666">0</text>
<text x="180" y="75" fill="#666666">/</text>
<text x="200" y="75" fill="#666666">2</text>
<text x="210" y="75" fill="#666666">,</text>
<text x="220" y="75" fill="#666666">0</text>
<text x="230" y="75" fill="#666666">0</text>
<text x="0" y="95" fill="#666666">0</text>
<text x="10" y="95" fill="#666666">,</text>
<text x="20" y="95" fill="#666666">0</text>
<text x="30" y="95" fill="#666666">0</text>
<text x="40" y="95" fill="#666666">0</text>
<text x="60" y="95" fill="#666666">(</text>
<text x="70" y="95" fill="#666666">E</text>
<text x="80" y="95" fill="#666666">n</text>
<text x="90" y="95" fill="#666666">d</text>
<text x="110" y="95" fill="#666666">B</text>
<text x="120" y="95" fill="#666666">l</text>
<text x="130" y="95" fill="#666666">o</text>
<text x="140" y="95" fill="#666666">c</text>
<text x="150" y="95" fill="#666666">k</text>
<text x="160" y="95" fill="#666666">)</text>
<text x="0" y="115" fill="#666666">E</text>
<text x="10" y="115" fill="#666666">v</text>
<text x="20" y="115" fill="#666666">e</text>
<text x="30" y="115" fill="#666666">n</text>
<text x="40" y="115" fill="#666666">t</text>
<text x="50" y="115" fill="#666666">s</text>
<text x="60" y="115" fill="#666666">:</text>
<text x="80" y="115" fill="#666666">1</text>
<text x="90" y="115" fill="#666666">7</text>
<text x="100" y="115" fill="#666666">3</text>
<text x="110" y="115" fill="#666666">,</text>
<text x="120" y="115" fill="#666666">4</text>
<text x="130" y="115" fill="#666666">5</text>
<text x="140" y="115" fill="#666666">6</text>
<text x="0" y="155" fill="#cccccc" font-weight="bold">T</text>
<text x="10" y="155" fill="#cccccc" font-weight="bold">o</text>
<text x="20" y="155" fill="#cccccc" font-weight="bold">t</text>
<text x="30" y="155" fill="#cccccc" font-weight="bold">a</text>
<text x="40" y="155" fill="#cccccc" font-weight="bold">l</text>
<text x="60" y="155" fill="#cccccc" font-weight="bold">E</text>
<text x="70" y="155" fill="#cccccc" font-weight="bold">v</text>
<text x="80" y="155" fill="#cccccc" font-weight="bold">e</text>
<text x="90" y="155" fill="#cccccc" font-weight="bold">n</text>
<text x="100" y="155" fill="#cccccc" font-weight="bold">t</text>
<text x="110" y="155" fill="#cccccc" font-weight="bold">s</text>
<text x="120" y="155" fill="#cccccc" font-weight="bold">:</text>
<text x="140" y="155" fill="#ffbb2f">1</text>
<text x="150" y="155" fill="#ffbb2f">7</text>
<text x="160" y="155" fill="#ffbb2f">3</text>
<text x="170" y="155" fill="#ffbb2f">,</text>
<text x="180" y="155" fill="#ffbb2f">4</text>
<text x="190" y="155" fill="#ffbb2f">5</text>
<text x="200" y="155" fill="#ffbb2f">6</text>
<text x="220" y="155" fill="#666666">(</text>
<text x="230" y="155" fill="#666666">5</text>
<text x="0" y="175" fill="#666666">,</text>
<text x="10" y="175" fill="#666666">0</text>
<text x="20" y="175" fill="#666666">0</text>
<text x="30" y="175" fill="#666666">0</text>
<text x="50" y="175" fill="#666666">e</text>
<text x="60" y="175" fill="#666666">v</text>
<text x="70" y="175" fill="#666666">e</text>
<text x="80" y="175" fill="#666666">n</text>
<text x="90" y="175" fill="#666666">t</text>
<text x="100" y="175" fill="#666666">s</text>
<text x="110" y="175" fill="#666666">/</text>
<text x="120" y="175" fill="#666666">s</text>
<text x="130" y="175" fill="#666666">e</text>
<text x="140" y="175" fill="#666666">c</text>
<text x="150" y="175" fill="#666666">)</text>
<text x="0" y="195" fill="#cccccc" font-weight="bold">S</text>
<text x="10" y="195" fill="#cccccc" font-weight="bold">y</text>
<text x="20" y="195" fill="#cccccc" font-weight="bold">n</text>
<text x="30" y="195" fill="#cccccc" font-weight="bold">c</text>
<text x="50" y="195" fill="#cccccc" font-weight="bold">T</text>
<text x="60" y="195" fill="#cccccc" font-weight="bold">i</text>
<text x="70" y="195" fill="#cccccc" font-weight="bold">m</text>
<text x="80" y="195" fill="#cccccc" font-weight="bold">e</text>
<text x="100" y="195" fill="#cccccc" font-weight="bold">E</text>
<text x="110" y="195" fill="#cccccc" font-weight="bold">T</text>
<text x="120" y="195" fill="#cccccc" font-weight="bold">A</text>
<text x="130" y="195" fill="#cccccc" font-weight="bold">:</text>
<text x="150" y="195" fill="#cccccc" font-weight="bold">5</text>
<text x="170" y="195" fill="#cccccc" font-weight="bold">m</text>
<text x="180" y="195" fill="#cccccc" font-weight="bold">i</text>
<text x="190" y="195" fill="#cccccc" font-weight="bold">n</text>
<text x="200" y="195" fill="#cccccc" font-weight="bold">u</text>
<text x="210" y="195" fill="#cccccc" font-weight="bold">t</text>
<text x="220" y="195" fill="#cccccc" font-weight="bold">e</text>
<text x="230" y="195" fill="#cccccc" font-weight="bold">s</text>
<text x="10" y="215" fill="#cccccc" font-weight="bold">(</text>
<text x="20" y="215" fill="#9860e5" font-weight="bold">⠸</text>
<text x="40" y="215" fill="#ffbb2f" font-weight="bold">i</text>
<text x="50" y="215" fill="#ffbb2f" font-weight="bold">n</text>
<text x="70" y="215" fill="#ffbb2f" font-weight="bold">p</text>
<text x="80" y="215" fill="#ffbb2f" font-weight="bold">r</text>
<text x="90" y="215" fill="#ffbb2f" font-weight="bold">o</text>
<text x="100" y="215" fill="#ffbb2f" font-weight="bold">g</text>
<text x="110" y="215" fill="#ffbb2f" font-weight="bold">r</text>
<text x="120" y="215" fill="#ffbb2f" font-weight="bold">e</text>
<text x="130" y="215" fill="#ffbb2f" font-weight="bold">s</text>
<text x="140" y="215" fill="#ffbb2f" font-weight="bold">s</text>
<text x="150" y="215" fill="#cccccc" font-weight="bold">)</text>
<text x="0" y="255" fill="#cccccc">G</text>
<text x="10" y="255" fill="#cccccc">r</text>
<text x="20" y="255" fill="#cccccc">a</text>
<text x="30" y="255" fill="#cccccc">p</text>
<text x="40" y="255" fill="#cccccc">h</text>
<text x="50" y="255" fill="#cccccc">Q</text>
<text x="60" y="255" fill="#cccccc">L</text>
<text x="70" y="255" fill="#cccccc">:</text>
<text x="90" y="255" fill="#6cbfee" text-decoration="underline">h</text>
<text x="100" y="255" fill="#6cbfee" text-decoration="underline">t</text>
<text x="110" y="255" fill="#6cbfee" text-decoration="underline">t</text>
<text x="120" y="255" fill="#6cbfee" text-decoration="underline">p</text>
<text x="130" y="255" fill="#6cbfee" text-decoration="underline">:</text>
<text x="140" y="255" fill="#6cbfee" text-decoration="underline">/</text>
<text x="150" y="255" fill="#6cbfee" text-decoration="underline">/</text>
<text x="160" y="255" fill="#6cbfee" text-decoration="underline">l</text>
<text x="170" y="255" fill="#6cbfee" text-decoration="underline">o</text>
<text x="180" y="255" fill="#6cbfee" text-decoration="underline">c</text>
<text x="190" y="255" fill="#6cbfee" text-decoration="underline">a</text>
<text x="200" y="255" fill="#6cbfee" text-decoration="underline">l</text>
<text x="210" y="255" fill="#6cbfee" text-decoration="underline">h</text>
<text x="220" y="255" fill="#6cbfee" text-decoration="underline">o</text>
<text x="230" y="255" fill="#6cbfee" text-decoration="underline">s</text>
<text x="0" y="275" fill="#6cbfee" text-decoration="underline">t</text>
<text x="10" y="275" fill="#6cbfee" text-decoration="underline">:</text>
<text x="20" y="275" fill="#6cbfee" text-decoration="underline">8</text>
<text x="30" y="275" fill="#6cbfee" text-decoration="underline">0</text>
<text x="40" y="275" fill="#6cbfee" text-decoration="underline">8</text>
<text x="50" y="275" fill="#6cbfee" text-decoration="underline">0</text>
<text x="70" y="275" fill="#666666">(</text>
<text x="80" y="275" fill="#666666">p</text>
<text x="90" y="275" fill="#666666">a</text>
<text x="100" y="275" fill="#666666">s</text>
<text x="110" y="275" fill="#666666">s</text>
<text x="120" y="275" fill="#666666">w</text>
<text x="130" y="275" fill="#666666">o</text>
<text x="140" y="275" fill="#666666">r</text>
<text x="150" y="275" fill="#666666">d</text>
<text x="160" y="275" fill="#666666">:</text>
<text x="180" y="275" fill="#666666">t</text>
<text x="190" y="275" fill="#666666">e</text>
<text x="200" y="275" fill="#666666">s</text>
<text x="210" y="275" fill="#666666">t</text>
<text x="220" y="275" fill="#666666">i</text>
<text x="230" y="275" fill="#666666">n</text>
<text x="0" y="295" fill="#666666">g</text>
<text x="10" y="295" fill="#666666">)</text>
</svg>
