<svg xmlns="http://www.w3.org/2000/svg" width="1000" height="340" font-family="ui-monospace, Menlo, Consolas, monospace" font-size="16" xml:space="preserve" shape-rendering="crispEdges">
<rect width="100%" height="100%" fill="#1e1e1e"/>
<text x="20" y="15" fill="#cccccc" font-weight="bold">e</text>
<text x="30" y="15" fill="#cccccc" font-weight="bold">n</text>
<text x="40" y="15" fill="#cccccc" font-weight="bold">v</text>
<text x="50" y="15" fill="#cccccc" font-weight="bold">i</text>
<text x="60" y="15" fill="#cccccc" font-weight="bold">o</text>
<text x="70" y="15" fill="#8a8781">@</text>
<text x="80" y="15" fill="#8a8781">2</text>
<text x="90" y="15" fill="#8a8781">.</text>
<text x="100" y="15" fill="#8a8781">3</text>
<text x="110" y="15" fill="#8a8781">2</text>
<text x="120" y="15" fill="#8a8781">.</text>
<text x="130" y="15" fill="#8a8781">0</text>
<text x="150" y="15" fill="#666666">~</text>
<text x="160" y="15" fill="#666666">/</text>
<text x="170" y="15" fill="#666666">c</text>
<text x="180" y="15" fill="#666666">o</text>
<text x="190" y="15" fill="#666666">d</text>
<text x="200" y="15" fill="#666666">e</text>
<text x="210" y="15" fill="#666666">/</text>
<text x="220" y="15" fill="#666666">p</text>
<text x="230" y="15" fill="#666666">r</text>
<text x="240" y="15" fill="#666666">o</text>
<text x="250" y="15" fill="#666666">j</text>
<text x="260" y="15" fill="#666666">e</text>
<text x="270" y="15" fill="#666666">c</text>
<text x="280" y="15" fill="#666666">t</text>
<text x="290" y="15" fill="#666666">s</text>
<text x="300" y="15" fill="#666666">/</text>
<text x="310" y="15" fill="#666666">e</text>
<text x="320" y="15" fill="#666666">n</text>
<text x="330" y="15" fill="#666666">v</text>
<text x="340" y="15" fill="#666666">i</text>
<text x="350" y="15" fill="#666666">o</text>
<text x="360" y="15" fill="#666666">/</text>
<text x="370" y="15" fill="#666666">u</text>
<text x="380" y="15" fill="#666666">n</text>
<text x="390" y="15" fill="#666666">i</text>
<text x="400" y="15" fill="#666666">s</text>
<text x="410" y="15" fill="#666666">w</text>
<text x="420" y="15" fill="#666666">a</text>
<text x="430" y="15" fill="#666666">p</text>
<text x="440" y="15" fill="#666666">-</text>
<text x="450" y="15" fill="#666666">i</text>
<text x="460" y="15" fill="#666666">n</text>
<text x="470" y="15" fill="#666666">d</text>
<text x="480" y="15" fill="#666666">e</text>
<text x="490" y="15" fill="#666666">x</text>
<text x="500" y="15" fill="#666666">e</text>
<text x="510" y="15" fill="#666666">r</text>
<circle cx="373" cy="43" r="1.4" fill="#ff8b61"/>
<circle cx="377" cy="47" r="1.4" fill="#ff8b61"/>
<circle cx="373" cy="52" r="1.4" fill="#ff8b61"/>
<circle cx="377" cy="56" r="1.4" fill="#ff8b61"/>
<circle cx="383" cy="43" r="1.4" fill="#ff8962"/>
<circle cx="387" cy="47" r="1.4" fill="#ff8962"/>
<circle cx="383" cy="52" r="1.4" fill="#ff8962"/>
<circle cx="393" cy="43" r="1.4" fill="#ff8664"/>
<circle cx="397" cy="47" r="1.4" fill="#ff8664"/>
<circle cx="403" cy="43" r="1.4" fill="#ff8466"/>
<circle cx="407" cy="47" r="1.4" fill="#ff8466"/>
<circle cx="423" cy="43" r="1.4" fill="#ff8565"/>
<circle cx="427" cy="47" r="1.4" fill="#ff8565"/>
<circle cx="423" cy="52" r="1.4" fill="#ff8565"/>
<circle cx="427" cy="56" r="1.4" fill="#ff8565"/>
<circle cx="433" cy="43" r="1.4" fill="#ff8863"/>
<circle cx="437" cy="47" r="1.4" fill="#ff8863"/>
<circle cx="433" cy="52" r="1.4" fill="#ff8863"/>
<circle cx="437" cy="56" r="1.4" fill="#ff8863"/>
<circle cx="443" cy="52" r="1.4" fill="#ff8a62"/>
<circle cx="463" cy="43" r="1.4" fill="#ff8f5e"/>
<circle cx="467" cy="47" r="1.4" fill="#ff8f5e"/>
<circle cx="463" cy="52" r="1.4" fill="#ff8f5e"/>
<circle cx="467" cy="56" r="1.4" fill="#ff8f5e"/>
<circle cx="473" cy="43" r="1.4" fill="#ff925d"/>
<circle cx="473" cy="52" r="1.4" fill="#ff925d"/>
<circle cx="487" cy="47" r="1.4" fill="#ff945b"/>
<circle cx="493" cy="43" r="1.4" fill="#ff9659"/>
<circle cx="497" cy="47" r="1.4" fill="#ff9659"/>
<circle cx="493" cy="52" r="1.4" fill="#ff9659"/>
<circle cx="497" cy="56" r="1.4" fill="#ff9659"/>
<circle cx="527" cy="47" r="1.4" fill="#ff9e54"/>
<circle cx="523" cy="52" r="1.4" fill="#ff9e54"/>
<circle cx="527" cy="56" r="1.4" fill="#ff9e54"/>
<circle cx="533" cy="43" r="1.4" fill="#ffa052"/>
<circle cx="537" cy="47" r="1.4" fill="#ffa052"/>
<circle cx="533" cy="52" r="1.4" fill="#ffa052"/>
<circle cx="547" cy="47" r="1.4" fill="#ffa44d"/>
<circle cx="547" cy="56" r="1.4" fill="#ffa44d"/>
<circle cx="553" cy="43" r="1.4" fill="#ffa947"/>
<circle cx="557" cy="47" r="1.4" fill="#ffa947"/>
<circle cx="553" cy="52" r="1.4" fill="#ffa947"/>
<circle cx="557" cy="56" r="1.4" fill="#ffa947"/>
<circle cx="577" cy="56" r="1.4" fill="#feb139"/>
<circle cx="587" cy="47" r="1.4" fill="#feb633"/>
<circle cx="583" cy="52" r="1.4" fill="#feb633"/>
<circle cx="593" cy="43" r="1.4" fill="#feba2c"/>
<circle cx="597" cy="47" r="1.4" fill="#feba2c"/>
<circle cx="593" cy="52" r="1.4" fill="#feba2c"/>
<circle cx="603" cy="43" r="1.4" fill="#febe26"/>
<circle cx="607" cy="47" r="1.4" fill="#febe26"/>
<circle cx="603" cy="52" r="1.4" fill="#febe26"/>
<circle cx="617" cy="47" r="1.4" fill="#fec21f"/>
<circle cx="613" cy="52" r="1.4" fill="#fec21f"/>
<circle cx="617" cy="56" r="1.4" fill="#fec21f"/>
<circle cx="623" cy="52" r="1.4" fill="#fec719"/>
<circle cx="373" cy="63" r="1.4" fill="#ff8b61"/>
<circle cx="377" cy="67" r="1.4" fill="#ff8b61"/>
<circle cx="373" cy="72" r="1.4" fill="#ff8b61"/>
<circle cx="377" cy="76" r="1.4" fill="#ff8b61"/>
<circle cx="383" cy="63" r="1.4" fill="#ff8962"/>
<circle cx="387" cy="67" r="1.4" fill="#ff8962"/>
<circle cx="383" cy="72" r="1.4" fill="#ff8962"/>
<circle cx="397" cy="67" r="1.4" fill="#ff8664"/>
<circle cx="393" cy="72" r="1.4" fill="#ff8664"/>
<circle cx="407" cy="67" r="1.4" fill="#ff8466"/>
<circle cx="403" cy="72" r="1.4" fill="#ff8466"/>
<circle cx="423" cy="63" r="1.4" fill="#ff8565"/>
<circle cx="427" cy="67" r="1.4" fill="#ff8565"/>
<circle cx="423" cy="72" r="1.4" fill="#ff8565"/>
<circle cx="427" cy="76" r="1.4" fill="#ff8565"/>
<circle cx="433" cy="63" r="1.4" fill="#ff8863"/>
<circle cx="437" cy="67" r="1.4" fill="#ff8863"/>
<circle cx="433" cy="72" r="1.4" fill="#ff8863"/>
<circle cx="443" cy="63" r="1.4" fill="#ff8a62"/>
<circle cx="447" cy="67" r="1.4" fill="#ff8a62"/>
<circle cx="443" cy="72" r="1.4" fill="#ff8a62"/>
<circle cx="447" cy="76" r="1.4" fill="#ff8a62"/>
<circle cx="453" cy="72" r="1.4" fill="#ff8d60"/>
<circle cx="457" cy="76" r="1.4" fill="#ff8d60"/>
<circle cx="463" cy="63" r="1.4" fill="#ff8f5e"/>
<circle cx="467" cy="67" r="1.4" fill="#ff8f5e"/>
<circle cx="463" cy="72" r="1.4" fill="#ff8f5e"/>
<circle cx="467" cy="76" r="1.4" fill="#ff8f5e"/>
<circle cx="473" cy="63" r="1.4" fill="#ff925d"/>
<circle cx="473" cy="72" r="1.4" fill="#ff925d"/>
<circle cx="493" cy="63" r="1.4" fill="#ff9659"/>
<circle cx="497" cy="67" r="1.4" fill="#ff9659"/>
<circle cx="497" cy="76" r="1.4" fill="#ff9659"/>
<circle cx="503" cy="63" r="1.4" fill="#ff9957"/>
<circle cx="503" cy="72" r="1.4" fill="#ff9957"/>
<circle cx="507" cy="76" r="1.4" fill="#ff9957"/>
<circle cx="517" cy="67" r="1.4" fill="#ff9b56"/>
<circle cx="517" cy="76" r="1.4" fill="#ff9b56"/>
<circle cx="523" cy="63" r="1.4" fill="#ff9e54"/>
<circle cx="527" cy="67" r="1.4" fill="#ff9e54"/>
<circle cx="523" cy="72" r="1.4" fill="#ff9e54"/>
<circle cx="547" cy="67" r="1.4" fill="#ffa44d"/>
<circle cx="547" cy="76" r="1.4" fill="#ffa44d"/>
<circle cx="553" cy="63" r="1.4" fill="#ffa947"/>
<circle cx="557" cy="67" r="1.4" fill="#ffa947"/>
<circle cx="553" cy="72" r="1.4" fill="#ffa947"/>
<circle cx="557" cy="76" r="1.4" fill="#ffa947"/>
<circle cx="573" cy="63" r="1.4" fill="#feb139"/>
<circle cx="577" cy="67" r="1.4" fill="#feb139"/>
<circle cx="573" cy="72" r="1.4" fill="#feb139"/>
<circle cx="577" cy="76" r="1.4" fill="#feb139"/>
<circle cx="583" cy="63" r="1.4" fill="#feb633"/>
<circle cx="583" cy="72" r="1.4" fill="#feb633"/>
<circle cx="617" cy="67" r="1.4" fill="#fec21f"/>
<circle cx="617" cy="76" r="1.4" fill="#fec21f"/>
<circle cx="623" cy="63" r="1.4" fill="#fec719"/>
<circle cx="627" cy="67" r="1.4" fill="#fec719"/>
<circle cx="623" cy="72" r="1.4" fill="#fec719"/>
<circle cx="627" cy="76" r="1.4" fill="#fec719"/>
<circle cx="373" cy="83" r="1.4" fill="#ff8b61"/>
<circle cx="377" cy="87" r="1.4" fill="#ff8b61"/>
<circle cx="373" cy="92" r="1.4" fill="#ff8b61"/>
<circle cx="377" cy="96" r="1.4" fill="#ff8b61"/>
<circle cx="383" cy="83" r="1.4" fill="#ff8962"/>
<circle cx="387" cy="87" r="1.4" fill="#ff8962"/>
<circle cx="383" cy="92" r="1.4" fill="#ff8962"/>
<circle cx="387" cy="96" r="1.4" fill="#ff8962"/>
<circle cx="397" cy="87" r="1.4" fill="#ff8664"/>
<circle cx="393" cy="92" r="1.4" fill="#ff8664"/>
<circle cx="397" cy="96" r="1.4" fill="#ff8664"/>
<circle cx="407" cy="87" r="1.4" fill="#ff8466"/>
<circle cx="403" cy="92" r="1.4" fill="#ff8466"/>
<circle cx="407" cy="96" r="1.4" fill="#ff8466"/>
<circle cx="413" cy="92" r="1.4" fill="#ff8367"/>
<circle cx="423" cy="83" r="1.4" fill="#ff8565"/>
<circle cx="427" cy="87" r="1.4" fill="#ff8565"/>
<circle cx="423" cy="92" r="1.4" fill="#ff8565"/>
<circle cx="427" cy="96" r="1.4" fill="#ff8565"/>
<circle cx="433" cy="83" r="1.4" fill="#ff8863"/>
<circle cx="433" cy="92" r="1.4" fill="#ff8863"/>
<circle cx="453" cy="83" r="1.4" fill="#ff8d60"/>
<circle cx="457" cy="87" r="1.4" fill="#ff8d60"/>
<circle cx="463" cy="83" r="1.4" fill="#ff8f5e"/>
<circle cx="467" cy="87" r="1.4" fill="#ff8f5e"/>
<circle cx="463" cy="92" r="1.4" fill="#ff8f5e"/>
<circle cx="467" cy="96" r="1.4" fill="#ff8f5e"/>
<circle cx="473" cy="83" r="1.4" fill="#ff925d"/>
<circle cx="473" cy="92" r="1.4" fill="#ff925d"/>
<circle cx="503" cy="83" r="1.4" fill="#ff9957"/>
<circle cx="507" cy="87" r="1.4" fill="#ff9957"/>
<circle cx="503" cy="92" r="1.4" fill="#ff9957"/>
<circle cx="507" cy="96" r="1.4" fill="#ff9957"/>
<circle cx="513" cy="83" r="1.4" fill="#ff9b56"/>
<circle cx="517" cy="87" r="1.4" fill="#ff9b56"/>
<circle cx="513" cy="92" r="1.4" fill="#ff9b56"/>
<circle cx="517" cy="96" r="1.4" fill="#ff9b56"/>
<circle cx="523" cy="83" r="1.4" fill="#ff9e54"/>
<circle cx="547" cy="87" r="1.4" fill="#ffa44d"/>
<circle cx="547" cy="96" r="1.4" fill="#ffa44d"/>
<circle cx="553" cy="83" r="1.4" fill="#ffa947"/>
<circle cx="557" cy="87" r="1.4" fill="#ffa947"/>
<circle cx="553" cy="92" r="1.4" fill="#ffa947"/>
<circle cx="557" cy="96" r="1.4" fill="#ffa947"/>
<circle cx="573" cy="83" r="1.4" fill="#feb139"/>
<circle cx="577" cy="87" r="1.4" fill="#feb139"/>
<circle cx="583" cy="83" r="1.4" fill="#feb633"/>
<circle cx="587" cy="87" r="1.4" fill="#feb633"/>
<circle cx="583" cy="92" r="1.4" fill="#feb633"/>
<circle cx="587" cy="96" r="1.4" fill="#feb633"/>
<circle cx="597" cy="87" r="1.4" fill="#feba2c"/>
<circle cx="593" cy="92" r="1.4" fill="#feba2c"/>
<circle cx="597" cy="96" r="1.4" fill="#feba2c"/>
<circle cx="607" cy="87" r="1.4" fill="#febe26"/>
<circle cx="603" cy="92" r="1.4" fill="#febe26"/>
<circle cx="607" cy="96" r="1.4" fill="#febe26"/>
<circle cx="613" cy="83" r="1.4" fill="#fec21f"/>
<circle cx="617" cy="87" r="1.4" fill="#fec21f"/>
<circle cx="613" cy="92" r="1.4" fill="#fec21f"/>
<circle cx="623" cy="83" r="1.4" fill="#fec719"/>
<text x="20" y="135" fill="#cccccc" font-weight="bold">E</text>
<text x="30" y="135" fill="#cccccc" font-weight="bold">t</text>
<text x="40" y="135" fill="#cccccc" font-weight="bold">h</text>
<text x="50" y="135" fill="#cccccc" font-weight="bold">e</text>
<text x="60" y="135" fill="#cccccc" font-weight="bold">r</text>
<text x="70" y="135" fill="#cccccc" font-weight="bold">e</text>
<text x="80" y="135" fill="#cccccc" font-weight="bold">u</text>
<text x="90" y="135" fill="#cccccc" font-weight="bold">m</text>
<text x="110" y="135" fill="#666666">1</text>
<rect x="210" y="128" width="10" height="4" fill="#ff8267"/>
<rect x="220" y="128" width="10" height="4" fill="#ff8466"/>
<rect x="230" y="128" width="10" height="4" fill="#ff8664"/>
<rect x="240" y="128" width="10" height="4" fill="#ff8863"/>
<rect x="250" y="128" width="10" height="4" fill="#ff8a61"/>
<rect x="260" y="128" width="10" height="4" fill="#ff8c60"/>
<rect x="270" y="128" width="10" height="4" fill="#ff8e5f"/>
<rect x="280" y="128" width="10" height="4" fill="#ff905d"/>
<rect x="290" y="128" width="10" height="4" fill="#ff935c"/>
<rect x="300" y="128" width="10" height="4" fill="#ff955a"/>
<rect x="310" y="128" width="10" height="4" fill="#ff9759"/>
<rect x="320" y="128" width="10" height="4" fill="#ff9958"/>
<rect x="330" y="128" width="10" height="4" fill="#ff9b56"/>
<rect x="340" y="128" width="10" height="4" fill="#ff9d55"/>
<rect x="350" y="128" width="10" height="4" fill="#ff9f53"/>
<rect x="360" y="128" width="10" height="4" fill="#ffa152"/>
<rect x="370" y="128" width="10" height="4" fill="#ffa54d"/>
<rect x="380" y="128" width="10" height="4" fill="#ffa847"/>
<rect x="390" y="128" width="10" height="4" fill="#ffac42"/>
<rect x="400" y="128" width="10" height="4" fill="#feaf3c"/>
<rect x="410" y="128" width="10" height="4" fill="#feb337"/>
<rect x="420" y="128" width="10" height="4" fill="#feb731"/>
<rect x="430" y="128" width="10" height="4" fill="#feba2c"/>
<rect x="440" y="128" width="10" height="4" fill="#febe26"/>
<rect x="450" y="128" width="10" height="4" fill="#fec121"/>
<rect x="460" y="128" width="10" height="4" fill="#fec51b"/>
<rect x="470" y="128" width="10" height="4" fill="#fec916"/>
<rect x="480" y="128" width="10" height="4" fill="#fdcc10"/>
<rect x="490" y="128" width="10" height="4" fill="#fdd00b"/>
<rect x="500" y="128" width="10" height="4" fill="#fdd305"/>
<rect x="510" y="128" width="10" height="4" fill="#fdd700"/>
<text x="540" y="135" fill="#8fbf7f">✓</text>
<text x="570" y="135" fill="#8a8781">a</text>
<text x="580" y="135" fill="#8a8781">t</text>
<text x="600" y="135" fill="#8a8781">e</text>
<text x="610" y="135" fill="#8a8781">n</text>
<text x="620" y="135" fill="#8a8781">d</text>
<text x="640" y="135" fill="#cccccc">2</text>
<text x="650" y="135" fill="#cccccc">1</text>
<text x="660" y="135" fill="#cccccc">,</text>
<text x="670" y="135" fill="#cccccc">0</text>
<text x="680" y="135" fill="#cccccc">0</text>
<text x="690" y="135" fill="#cccccc">0</text>
<text x="700" y="135" fill="#cccccc">,</text>
<text x="710" y="135" fill="#cccccc">0</text>
<text x="720" y="135" fill="#cccccc">0</text>
<text x="730" y="135" fill="#cccccc">0</text>
<text x="790" y="135" fill="#cccccc">1</text>
<text x="800" y="135" fill="#cccccc">.</text>
<text x="810" y="135" fill="#cccccc">2</text>
<text x="820" y="135" fill="#cccccc">M</text>
<text x="840" y="135" fill="#666666">e</text>
<text x="850" y="135" fill="#666666">v</text>
<text x="860" y="135" fill="#666666">e</text>
<text x="870" y="135" fill="#666666">n</text>
<text x="880" y="135" fill="#666666">t</text>
<text x="890" y="135" fill="#666666">s</text>
<text x="20" y="155" fill="#cccccc" font-weight="bold">B</text>
<text x="30" y="155" fill="#cccccc" font-weight="bold">a</text>
<text x="40" y="155" fill="#cccccc" font-weight="bold">s</text>
<text x="50" y="155" fill="#cccccc" font-weight="bold">e</text>
<text x="70" y="155" fill="#666666">8</text>
<text x="80" y="155" fill="#666666">4</text>
<text x="90" y="155" fill="#666666">5</text>
<text x="100" y="155" fill="#666666">3</text>
<rect x="210" y="148" width="10" height="4" fill="#ff8267"/>
<rect x="220" y="148" width="10" height="4" fill="#ff8466"/>
<rect x="230" y="148" width="10" height="4" fill="#ff8664"/>
<rect x="240" y="148" width="10" height="4" fill="#ff8863"/>
<rect x="250" y="148" width="10" height="4" fill="#ff8a61"/>
<rect x="260" y="148" width="10" height="4" fill="#ff8c60"/>
<rect x="270" y="148" width="10" height="4" fill="#ff8e5f"/>
<rect x="280" y="148" width="10" height="4" fill="#ff905d"/>
<rect x="290" y="148" width="10" height="4" fill="#ff935c"/>
<rect x="300" y="148" width="10" height="4" fill="#ff955a"/>
<rect x="310" y="148" width="10" height="4" fill="#ff9759"/>
<rect x="320" y="148" width="10" height="4" fill="#ff9958"/>
<rect x="330" y="148" width="10" height="4" fill="#ff9b56"/>
<rect x="340" y="148" width="10" height="4" fill="#ff9d55"/>
<rect x="350" y="148" width="10" height="4" fill="#ff9f53"/>
<rect x="360" y="148" width="10" height="4" fill="#ffa152"/>
<rect x="370" y="148" width="10" height="4" fill="#ffa54d"/>
<rect x="380" y="148" width="10" height="4" fill="#ffa847"/>
<rect x="390" y="148" width="10" height="4" fill="#ffac42"/>
<rect x="400" y="148" width="10" height="4" fill="#feaf3c"/>
<rect x="410" y="148" width="10" height="4" fill="#feb337"/>
<rect x="420" y="148" width="10" height="4" fill="#feb731"/>
<rect x="430" y="148" width="10" height="4" fill="#feba2c"/>
<rect x="440" y="148" width="10" height="4" fill="#febe26"/>
<rect x="450" y="148" width="10" height="4" fill="#fec121"/>
<rect x="460" y="148" width="10" height="4" fill="#fec51b"/>
<rect x="470" y="148" width="10" height="4" fill="#fec916"/>
<rect x="480" y="148" width="10" height="4" fill="#fdcc10"/>
<rect x="490" y="148" width="10" height="4" fill="#fdd00b"/>
<rect x="500" y="148" width="10" height="4" fill="#fdd305"/>
<rect x="510" y="148" width="10" height="4" fill="#fdd700"/>
<text x="540" y="155" fill="#8fbf7f">✓</text>
<text x="570" y="155" fill="#8a8781">a</text>
<text x="580" y="155" fill="#8a8781">t</text>
<text x="600" y="155" fill="#8a8781">h</text>
<text x="610" y="155" fill="#8a8781">e</text>
<text x="620" y="155" fill="#8a8781">a</text>
<text x="630" y="155" fill="#8a8781">d</text>
<text x="650" y="155" fill="#cccccc">2</text>
<text x="660" y="155" fill="#cccccc">4</text>
<text x="670" y="155" fill="#cccccc">,</text>
<text x="680" y="155" fill="#cccccc">1</text>
<text x="690" y="155" fill="#cccccc">1</text>
<text x="700" y="155" fill="#cccccc">8</text>
<text x="710" y="155" fill="#cccccc">,</text>
<text x="720" y="155" fill="#cccccc">9</text>
<text x="730" y="155" fill="#cccccc">0</text>
<text x="740" y="155" fill="#cccccc">3</text>
<text x="770" y="155" fill="#cccccc">9</text>
<text x="780" y="155" fill="#cccccc">0</text>
<text x="790" y="155" fill="#cccccc">3</text>
<text x="800" y="155" fill="#cccccc">.</text>
<text x="810" y="155" fill="#cccccc">4</text>
<text x="820" y="155" fill="#cccccc">K</text>
<text x="840" y="155" fill="#666666">e</text>
<text x="850" y="155" fill="#666666">v</text>
<text x="860" y="155" fill="#666666">e</text>
<text x="870" y="155" fill="#666666">n</text>
<text x="880" y="155" fill="#666666">t</text>
<text x="890" y="155" fill="#666666">s</text>
<text x="20" y="175" fill="#cccccc" font-weight="bold">A</text>
<text x="30" y="175" fill="#cccccc" font-weight="bold">r</text>
<text x="40" y="175" fill="#cccccc" font-weight="bold">b</text>
<text x="50" y="175" fill="#cccccc" font-weight="bold">i</text>
<text x="60" y="175" fill="#cccccc" font-weight="bold">t</text>
<text x="70" y="175" fill="#cccccc" font-weight="bold">r</text>
<text x="80" y="175" fill="#cccccc" font-weight="bold">u</text>
<text x="90" y="175" fill="#cccccc" font-weight="bold">m</text>
<text x="110" y="175" fill="#cccccc" font-weight="bold">O</text>
<text x="120" y="175" fill="#cccccc" font-weight="bold">n</text>
<text x="130" y="175" fill="#cccccc" font-weight="bold">e</text>
<text x="150" y="175" fill="#666666">4</text>
<text x="160" y="175" fill="#666666">2</text>
<text x="170" y="175" fill="#666666">1</text>
<text x="180" y="175" fill="#666666">6</text>
<text x="190" y="175" fill="#666666">1</text>
<rect x="210" y="168" width="10" height="4" fill="#ff8267"/>
<rect x="220" y="168" width="10" height="4" fill="#ff8466"/>
<rect x="230" y="168" width="10" height="4" fill="#ff8664"/>
<rect x="240" y="168" width="10" height="4" fill="#ff8863"/>
<rect x="250" y="168" width="10" height="4" fill="#ff8a61"/>
<rect x="260" y="168" width="10" height="4" fill="#ff8c60"/>
<rect x="270" y="168" width="10" height="4" fill="#ff8e5f"/>
<rect x="280" y="168" width="10" height="4" fill="#ff905d"/>
<rect x="290" y="168" width="10" height="4" fill="#ff935c"/>
<rect x="300" y="168" width="10" height="4" fill="#ff955a"/>
<rect x="310" y="168" width="10" height="4" fill="#ff9759"/>
<rect x="320" y="168" width="10" height="4" fill="#ff9958"/>
<rect x="330" y="168" width="10" height="4" fill="#ff9b56"/>
<rect x="340" y="168" width="10" height="4" fill="#ff9d55"/>
<rect x="350" y="168" width="10" height="4" fill="#ff9f53"/>
<rect x="360" y="168" width="10" height="4" fill="#ffa152"/>
<rect x="370" y="168" width="10" height="4" fill="#ffa54d"/>
<rect x="380" y="168" width="10" height="4" fill="#ffa847"/>
<rect x="390" y="168" width="10" height="4" fill="#ffac42"/>
<rect x="400" y="168" width="10" height="4" fill="#feaf3c"/>
<rect x="410" y="168" width="10" height="4" fill="#feb337"/>
<rect x="420" y="168" width="10" height="4" fill="#feb731"/>
<rect x="430" y="168" width="10" height="4" fill="#feba2c"/>
<rect x="440" y="168" width="10" height="4" fill="#febe26"/>
<rect x="450" y="168" width="10" height="4" fill="#fec121"/>
<rect x="460" y="168" width="10" height="4" fill="#fec51b"/>
<rect x="470" y="168" width="10" height="4" fill="#fec916"/>
<rect x="480" y="168" width="10" height="4" fill="#fdcc10"/>
<rect x="490" y="168" width="10" height="4" fill="#fdd00b"/>
<rect x="500" y="168" width="10" height="4" fill="#fdd305"/>
<rect x="510" y="168" width="10" height="4" fill="#fdd700"/>
<text x="540" y="175" fill="#8fbf7f">✓</text>
<text x="570" y="175" fill="#8a8781">a</text>
<text x="580" y="175" fill="#8a8781">t</text>
<text x="600" y="175" fill="#8a8781">h</text>
<text x="610" y="175" fill="#8a8781">e</text>
<text x="620" y="175" fill="#8a8781">a</text>
<text x="630" y="175" fill="#8a8781">d</text>
<text x="650" y="175" fill="#cccccc">3</text>
<text x="660" y="175" fill="#cccccc">0</text>
<text x="670" y="175" fill="#cccccc">1</text>
<text x="680" y="175" fill="#cccccc">,</text>
<text x="690" y="175" fill="#cccccc">2</text>
<text x="700" y="175" fill="#cccccc">2</text>
<text x="710" y="175" fill="#cccccc">9</text>
<text x="720" y="175" fill="#cccccc">,</text>
<text x="730" y="175" fill="#cccccc">8</text>
<text x="740" y="175" fill="#cccccc">7</text>
<text x="750" y="175" fill="#cccccc">0</text>
<text x="770" y="175" fill="#cccccc">3</text>
<text x="780" y="175" fill="#cccccc">7</text>
<text x="790" y="175" fill="#cccccc">2</text>
<text x="800" y="175" fill="#cccccc">.</text>
<text x="810" y="175" fill="#cccccc">7</text>
<text x="820" y="175" fill="#cccccc">K</text>
<text x="840" y="175" fill="#666666">e</text>
<text x="850" y="175" fill="#666666">v</text>
<text x="860" y="175" fill="#666666">e</text>
<text x="870" y="175" fill="#666666">n</text>
<text x="880" y="175" fill="#666666">t</text>
<text x="890" y="175" fill="#666666">s</text>
<text x="20" y="215" fill="#8fbf7f">✓</text>
<text x="40" y="215" fill="#8fbf7f">s</text>
<text x="50" y="215" fill="#8fbf7f">y</text>
<text x="60" y="215" fill="#8fbf7f">n</text>
<text x="70" y="215" fill="#8fbf7f">c</text>
<text x="80" y="215" fill="#8fbf7f">e</text>
<text x="90" y="215" fill="#8fbf7f">d</text>
<text x="110" y="215" fill="#8a8781">i</text>
<text x="120" y="215" fill="#8a8781">n</text>
<text x="140" y="215" fill="#8a8781">4</text>
<text x="150" y="215" fill="#8a8781">m</text>
<text x="170" y="215" fill="#8a8781">0</text>
<text x="180" y="215" fill="#8a8781">2</text>
<text x="190" y="215" fill="#8a8781">s</text>
<text x="210" y="215" fill="#666666">·</text>
<text x="230" y="215" fill="#cccccc" font-weight="bold">2</text>
<text x="240" y="215" fill="#cccccc" font-weight="bold">,</text>
<text x="250" y="215" fill="#cccccc" font-weight="bold">4</text>
<text x="260" y="215" fill="#cccccc" font-weight="bold">8</text>
<text x="270" y="215" fill="#cccccc" font-weight="bold">1</text>
<text x="280" y="215" fill="#cccccc" font-weight="bold">,</text>
<text x="290" y="215" fill="#cccccc" font-weight="bold">0</text>
<text x="300" y="215" fill="#cccccc" font-weight="bold">3</text>
<text x="310" y="215" fill="#cccccc" font-weight="bold">4</text>
<text x="330" y="215" fill="#8a8781">e</text>
<text x="340" y="215" fill="#8a8781">v</text>
<text x="350" y="215" fill="#8a8781">e</text>
<text x="360" y="215" fill="#8a8781">n</text>
<text x="370" y="215" fill="#8a8781">t</text>
<text x="380" y="215" fill="#8a8781">s</text>
<text x="20" y="255" fill="#8a8781">G</text>
<text x="30" y="255" fill="#8a8781">r</text>
<text x="40" y="255" fill="#8a8781">a</text>
<text x="50" y="255" fill="#8a8781">p</text>
<text x="60" y="255" fill="#8a8781">h</text>
<text x="70" y="255" fill="#8a8781">Q</text>
<text x="80" y="255" fill="#8a8781">L</text>
<text x="100" y="255" fill="#cccccc" text-decoration="underline">h</text>
<text x="110" y="255" fill="#cccccc" text-decoration="underline">t</text>
<text x="120" y="255" fill="#cccccc" text-decoration="underline">t</text>
<text x="130" y="255" fill="#cccccc" text-decoration="underline">p</text>
<text x="140" y="255" fill="#cccccc" text-decoration="underline">:</text>
<text x="150" y="255" fill="#cccccc" text-decoration="underline">/</text>
<text x="160" y="255" fill="#cccccc" text-decoration="underline">/</text>
<text x="170" y="255" fill="#cccccc" text-decoration="underline">l</text>
<text x="180" y="255" fill="#cccccc" text-decoration="underline">o</text>
<text x="190" y="255" fill="#cccccc" text-decoration="underline">c</text>
<text x="200" y="255" fill="#cccccc" text-decoration="underline">a</text>
<text x="210" y="255" fill="#cccccc" text-decoration="underline">l</text>
<text x="220" y="255" fill="#cccccc" text-decoration="underline">h</text>
<text x="230" y="255" fill="#cccccc" text-decoration="underline">o</text>
<text x="240" y="255" fill="#cccccc" text-decoration="underline">s</text>
<text x="250" y="255" fill="#cccccc" text-decoration="underline">t</text>
<text x="260" y="255" fill="#cccccc" text-decoration="underline">:</text>
<text x="270" y="255" fill="#cccccc" text-decoration="underline">8</text>
<text x="280" y="255" fill="#cccccc" text-decoration="underline">0</text>
<text x="290" y="255" fill="#cccccc" text-decoration="underline">8</text>
<text x="300" y="255" fill="#cccccc" text-decoration="underline">0</text>
<text x="320" y="255" fill="#666666">(</text>
<text x="330" y="255" fill="#666666">a</text>
<text x="340" y="255" fill="#666666">d</text>
<text x="350" y="255" fill="#666666">m</text>
<text x="360" y="255" fill="#666666">i</text>
<text x="370" y="255" fill="#666666">n</text>
<text x="390" y="255" fill="#666666">s</text>
<text x="400" y="255" fill="#666666">e</text>
<text x="410" y="255" fill="#666666">c</text>
<text x="420" y="255" fill="#666666">r</text>
<text x="430" y="255" fill="#666666">e</text>
<text x="440" y="255" fill="#666666">t</text>
<text x="450" y="255" fill="#666666">:</text>
<text x="470" y="255" fill="#666666">t</text>
<text x="480" y="255" fill="#666666">e</text>
<text x="490" y="255" fill="#666666">s</text>
<text x="500" y="255" fill="#666666">t</text>
<text x="510" y="255" fill="#666666">i</text>
<text x="520" y="255" fill="#666666">n</text>
<text x="530" y="255" fill="#666666">g</text>
<text x="540" y="255" fill="#666666">)</text>
<text x="20" y="275" fill="#8a8781">C</text>
<text x="30" y="275" fill="#8a8781">o</text>
<text x="40" y="275" fill="#8a8781">n</text>
<text x="50" y="275" fill="#8a8781">s</text>
<text x="60" y="275" fill="#8a8781">o</text>
<text x="70" y="275" fill="#8a8781">l</text>
<text x="80" y="275" fill="#8a8781">e</text>
<text x="100" y="275" fill="#cccccc" text-decoration="underline">h</text>
<text x="110" y="275" fill="#cccccc" text-decoration="underline">t</text>
<text x="120" y="275" fill="#cccccc" text-decoration="underline">t</text>
<text x="130" y="275" fill="#cccccc" text-decoration="underline">p</text>
<text x="140" y="275" fill="#cccccc" text-decoration="underline">s</text>
<text x="150" y="275" fill="#cccccc" text-decoration="underline">:</text>
<text x="160" y="275" fill="#cccccc" text-decoration="underline">/</text>
<text x="170" y="275" fill="#cccccc" text-decoration="underline">/</text>
<text x="180" y="275" fill="#cccccc" text-decoration="underline">e</text>
<text x="190" y="275" fill="#cccccc" text-decoration="underline">n</text>
<text x="200" y="275" fill="#cccccc" text-decoration="underline">v</text>
<text x="210" y="275" fill="#cccccc" text-decoration="underline">i</text>
<text x="220" y="275" fill="#cccccc" text-decoration="underline">o</text>
<text x="230" y="275" fill="#cccccc" text-decoration="underline">.</text>
<text x="240" y="275" fill="#cccccc" text-decoration="underline">d</text>
<text x="250" y="275" fill="#cccccc" text-decoration="underline">e</text>
<text x="260" y="275" fill="#cccccc" text-decoration="underline">v</text>
<text x="270" y="275" fill="#cccccc" text-decoration="underline">/</text>
<text x="280" y="275" fill="#cccccc" text-decoration="underline">c</text>
<text x="290" y="275" fill="#cccccc" text-decoration="underline">o</text>
<text x="300" y="275" fill="#cccccc" text-decoration="underline">n</text>
<text x="310" y="275" fill="#cccccc" text-decoration="underline">s</text>
<text x="320" y="275" fill="#cccccc" text-decoration="underline">o</text>
<text x="330" y="275" fill="#cccccc" text-decoration="underline">l</text>
<text x="340" y="275" fill="#cccccc" text-decoration="underline">e</text>
<text x="20" y="295" fill="#8a8781">C</text>
<text x="30" y="295" fill="#8a8781">l</text>
<text x="40" y="295" fill="#8a8781">i</text>
<text x="50" y="295" fill="#8a8781">c</text>
<text x="60" y="295" fill="#8a8781">k</text>
<text x="70" y="295" fill="#8a8781">H</text>
<text x="80" y="295" fill="#8a8781">o</text>
<text x="90" y="295" fill="#8a8781">u</text>
<text x="100" y="295" fill="#8a8781">s</text>
<text x="110" y="295" fill="#8a8781">e</text>
<text x="130" y="295" fill="#cccccc" text-decoration="underline">h</text>
<text x="140" y="295" fill="#cccccc" text-decoration="underline">t</text>
<text x="150" y="295" fill="#cccccc" text-decoration="underline">t</text>
<text x="160" y="295" fill="#cccccc" text-decoration="underline">p</text>
<text x="170" y="295" fill="#cccccc" text-decoration="underline">:</text>
<text x="180" y="295" fill="#cccccc" text-decoration="underline">/</text>
<text x="190" y="295" fill="#cccccc" text-decoration="underline">/</text>
<text x="200" y="295" fill="#cccccc" text-decoration="underline">l</text>
<text x="210" y="295" fill="#cccccc" text-decoration="underline">o</text>
<text x="220" y="295" fill="#cccccc" text-decoration="underline">c</text>
<text x="230" y="295" fill="#cccccc" text-decoration="underline">a</text>
<text x="240" y="295" fill="#cccccc" text-decoration="underline">l</text>
<text x="250" y="295" fill="#cccccc" text-decoration="underline">h</text>
<text x="260" y="295" fill="#cccccc" text-decoration="underline">o</text>
<text x="270" y="295" fill="#cccccc" text-decoration="underline">s</text>
<text x="280" y="295" fill="#cccccc" text-decoration="underline">t</text>
<text x="290" y="295" fill="#cccccc" text-decoration="underline">:</text>
<text x="300" y="295" fill="#cccccc" text-decoration="underline">8</text>
<text x="310" y="295" fill="#cccccc" text-decoration="underline">1</text>
<text x="320" y="295" fill="#cccccc" text-decoration="underline">2</text>
<text x="330" y="295" fill="#cccccc" text-decoration="underline">3</text>
<text x="340" y="295" fill="#cccccc" text-decoration="underline">/</text>
<text x="350" y="295" fill="#cccccc" text-decoration="underline">p</text>
<text x="360" y="295" fill="#cccccc" text-decoration="underline">l</text>
<text x="370" y="295" fill="#cccccc" text-decoration="underline">a</text>
<text x="380" y="295" fill="#cccccc" text-decoration="underline">y</text>
<text x="20" y="335" fill="#e0806b">▲</text>
<text x="40" y="335" fill="#cccccc">F</text>
<text x="50" y="335" fill="#cccccc">a</text>
<text x="60" y="335" fill="#cccccc">i</text>
<text x="70" y="335" fill="#cccccc">l</text>
<text x="80" y="335" fill="#cccccc">e</text>
<text x="90" y="335" fill="#cccccc">d</text>
<text x="110" y="335" fill="#cccccc">t</text>
<text x="120" y="335" fill="#cccccc">o</text>
<text x="140" y="335" fill="#cccccc">l</text>
<text x="150" y="335" fill="#cccccc">o</text>
<text x="160" y="335" fill="#cccccc">a</text>
<text x="170" y="335" fill="#cccccc">d</text>
<text x="190" y="335" fill="#cccccc">m</text>
<text x="200" y="335" fill="#cccccc">e</text>
<text x="210" y="335" fill="#cccccc">s</text>
<text x="220" y="335" fill="#cccccc">s</text>
<text x="230" y="335" fill="#cccccc">a</text>
<text x="240" y="335" fill="#cccccc">g</text>
<text x="250" y="335" fill="#cccccc">e</text>
<text x="260" y="335" fill="#cccccc">s</text>
<text x="280" y="335" fill="#cccccc">f</text>
<text x="290" y="335" fill="#cccccc">r</text>
<text x="300" y="335" fill="#cccccc">o</text>
<text x="310" y="335" fill="#cccccc">m</text>
<text x="330" y="335" fill="#cccccc">e</text>
<text x="340" y="335" fill="#cccccc">n</text>
<text x="350" y="335" fill="#cccccc">v</text>
<text x="360" y="335" fill="#cccccc">i</text>
<text x="370" y="335" fill="#cccccc">o</text>
<text x="390" y="335" fill="#cccccc">s</text>
<text x="400" y="335" fill="#cccccc">e</text>
<text x="410" y="335" fill="#cccccc">r</text>
<text x="420" y="335" fill="#cccccc">v</text>
<text x="430" y="335" fill="#cccccc">e</text>
<text x="440" y="335" fill="#cccccc">r</text>
</svg>
